<?xml version="1.0" encoding="UTF-8"?>
<svg width="1001px" height="1000px" viewBox="0 0 1001 1000" version="1.1" xmlns="http://www.w3.org/2000/svg" xmlns:xlink="http://www.w3.org/1999/xlink">
    <!-- Generator: Sketch 55.1 (78136) - https://sketchapp.com -->
    <title>编组 44</title>
    <desc>Created with Sketch.</desc>
    <g id="1000个上传" stroke="none" stroke-width="1" fill="none" fill-rule="evenodd">
        <g id="17" transform="translate(-1339.000000, -216.000000)">
            <g id="编组-44" transform="translate(1339.444444, 216.000000)">
                <rect id="矩形复制-31" x="0" y="0" width="1000" height="1000"></rect>
                <g id="161" transform="translate(100.000000, 121.000000)" fill-rule="nonzero">
                    <polygon id="路径" fill="#CED6E0" points="690.8625 588 110.1375 588 0 708 801 708"></polygon>
                    <polygon id="路径" fill="#ADB3BA" points="302 673 343.737288 626 457.262712 626 499 673"></polygon>
                    <path d="M691,208.387097 L691,589 L110,589 L110,208.387097 C110,190.024194 125.025862,175 143.390805,175 L659.278736,175 C675.974138,175 691,190.024194 691,208.387097 Z" id="路径" fill="#0D439B"></path>
                    <rect id="矩形" fill="#8AD7F8" x="152" y="217" width="497" height="329"></rect>
                    <path d="M801,707 C801,735.516129 777.6375,759 749.26875,759 L51.73125,759 C36.7125,759 25.03125,753.967742 15.01875,743.903226 C6.675,735.516129 0,722.096774 0,707 L801,707 Z" id="路径" fill="#0D439B"></path>
                    <g id="编组" transform="translate(154.000000, 0.000000)">
                        <path d="M361.909396,175.333333 L350.234899,175.333333 C350.234899,102 303.536913,40.3333333 245.16443,40.3333333 C186.791946,40.3333333 140.09396,100.333333 140.09396,175.333333 L128.419463,175.333333 C131.755034,95.3333333 183.456376,30.3333333 246.832215,30.3333333 C310.208054,30.3333333 361.909396,95.3333333 361.909396,175.333333 Z" id="路径" fill="#CED6E0"></path>
                        <g transform="translate(0.000000, 231.333333)">
                            <polygon id="路径" fill="#CED6E0" points="275.184564 295.666667 296.865772 162.333333 196.798658 162.333333 218.479866 295.666667"></polygon>
                            <g transform="translate(206.798658, 162.000000)" fill="#0D439B" id="路径">
                                <polygon points="58.3791946 50.3333333 73.3892617 35.3333333 40.033557 0.333333333 6.67785235 35.3333333 21.6879195 50.3333333"></polygon>
                                <polygon points="80.0604027 152 58.3791946 50.3333333 21.6879195 50.3333333 0.0067114094 152"></polygon>
                            </g>
                            <rect id="矩形" fill="#FBC5B3" x="178.45302" y="0.666666667" width="136.758389" height="161.666667"></rect>
                            <g transform="translate(146.765101, 70.666667)" fill="#F3F3F3" id="路径">
                                <path d="M168.446309,0 L100.067114,91.6666667 C100.067114,91.6666667 146.765101,135 150.100671,143.333333 L200.134228,40 L168.446309,0 Z"></path>
                                <path d="M31.6879195,0 L100.067114,93.3333333 C100.067114,93.3333333 53.3691275,136.666667 50.033557,145 L0,41.6666667 L31.6879195,0 Z"></path>
                            </g>
                            <g transform="translate(0.000000, 70.000000)" id="路径">
                                <g transform="translate(271.181208, 0.000000)">
                                    <path d="M224.151007,244 L205.805369,137.333333 C200.802013,115.666667 187.459732,97.3333333 167.446309,89 L84.057047,49 L20.6812081,244 L224.151007,244 L224.151007,244 Z" fill="#5A94F3"></path>
                                    <polygon fill="#0D439B" points="42.3624161 244 105.738255 105.666667 77.385906 87.3333333 124.083893 69 44.0302013 0.666666667 0.667785235 244"></polygon>
                                </g>
                                <g>
                                    <path d="M203.469799,244 L140.09396,49 L56.704698,89 C36.6912752,99 23.3489933,115.666667 18.3456376,137.333333 L0,244 L203.469799,244 Z" fill="#5A94F3"></path>
                                    <polygon fill="#0D439B" points="116.744966 105.666667 178.45302 244 221.815436 244 178.45302 0.666666667 98.3993289 69 145.097315 87.3333333"></polygon>
                                </g>
                            </g>
                        </g>
                        <ellipse id="椭圆形" fill="#FFD9CC" cx="246.832215" cy="185.333333" rx="93.3959732" ry="143.333333"></ellipse>
                        <g transform="translate(274.510067, 200.000000)" fill="#0D439B" id="路径">
                            <path d="M20.6879195,72 L17.352349,65.3333333 C62.3825503,42 75.7248322,0.333333333 75.7248322,0.333333333 L82.3959732,2 C82.3959732,3.66666667 69.0536913,47 20.6879195,72 Z"></path>
                            <path d="M30.6946309,62 C34.0302013,67 32.3624161,73.6666667 22.3557047,78.6666667 C10.6812081,83.6666667 5.67785235,80.3333333 2.34228188,75.3333333 C-0.993288591,70.3333333 -0.993288591,63.6666667 10.6812081,57 C22.3557047,52 27.3590604,55.3333333 30.6946309,62 Z"></path>
                        </g>
                        <path d="M151.768456,188.666667 L161.775168,188.666667 C161.775168,175.333333 160.107383,155.333333 160.107383,152 C160.107383,147 175.11745,143.666667 175.11745,127 C175.11745,120.333333 175.11745,112 176.785235,103.666667 C178.45302,95.3333333 186.791946,88.6666667 195.130872,90.3333333 C221.815436,93.6666667 285.191275,85.3333333 310.208054,95.3333333 C328.553691,102 310.208054,120.333333 318.54698,128.666667 C326.885906,137 328.553691,132 328.553691,138.666667 C328.553691,143.666667 330.221477,187 330.221477,197 L335.224832,197 C338.560403,185.333333 343.563758,152 351.902685,122 C363.577181,80.3333333 353.57047,50.3333333 318.54698,23.6666667 C283.52349,-3 235.157718,-4.66666667 203.469799,7 C173.449664,18.6666667 161.775168,32 165.110738,53.6666667 C165.110738,53.6666667 150.100671,52 135.090604,78.6666667 C120.080537,107 150.100671,163.666667 150.100671,170.333333 C150.100671,175.333333 151.768456,182 151.768456,188.666667 Z" id="路径" fill="#0D439B"></path>
                        <g transform="translate(123.409396, 151.000000)" id="路径">
                            <g transform="translate(204.476510, 0.333333)">
                                <path d="M42.3624161,27.3333333 L42.3624161,42.3333333 C42.3624161,45.6666667 39.0268456,49 35.6912752,49 L35.6912752,49 C32.3557047,49 29.0201342,52.3333333 29.0201342,55.6666667 C27.352349,69 24.0167785,77.3333333 17.3456376,77.3333333 C9.00671141,77.3333333 2.33557047,60.6666667 0.667785235,39 C-1,17.3333333 4.0033557,0.666666667 12.3422819,0.666666667 C15.6778523,0.666666667 20.6812081,5.66666667 22.3489933,12.3333333 C24.0167785,17.3333333 29.0201342,20.6666667 34.0234899,20.6666667 L34.0234899,20.6666667 C39.0268456,20.6666667 42.3624161,24 42.3624161,27.3333333 Z" fill="#F05540"></path>
                                <path d="M29.0201342,60.6666667 C27.352349,70.6666667 24.0167785,77.3333333 19.0134228,77.3333333 C10.6744966,77.3333333 4.0033557,60.6666667 2.33557047,39 C0.667785235,17.3333333 5.67114094,0.666666667 14.0100671,0.666666667 C17.3456376,0.666666667 20.6812081,4 24.0167785,10.6666667 C12.3422819,10.6666667 19.0134228,62.3333333 29.0201342,60.6666667 Z" fill="#F3705A"></path>
                            </g>
                            <g transform="translate(0.000000, 1.000000)">
                                <path d="M0.0067114094,26.6666667 L0.0067114094,41.6666667 C0.0067114094,45 3.34228188,48.3333333 6.67785235,48.3333333 L6.67785235,48.3333333 C10.0134228,48.3333333 13.3489933,51.6666667 13.3489933,55 C15.0167785,68.3333333 18.352349,76.6666667 25.0234899,76.6666667 C33.3624161,76.6666667 40.033557,60 41.7013423,38.3333333 C43.3691275,16.6666667 38.3657718,0 30.0268456,0 C26.6912752,0 21.6879195,5 20.0201342,11.6666667 C18.352349,16.6666667 13.3489933,20 8.34563758,20 L8.34563758,20 C3.34228188,20 0.0067114094,23.3333333 0.0067114094,26.6666667 Z" fill="#F05540"></path>
                                <path d="M13.3489933,60 C15.0167785,70 18.352349,76.6666667 23.3557047,76.6666667 C31.6946309,76.6666667 38.3657718,60 40.033557,38.3333333 C41.7013423,16.6666667 36.6979866,0 28.3590604,0 C25.0234899,0 21.6879195,3.33333333 18.352349,10 C30.0268456,10 23.3557047,61.6666667 13.3489933,60 Z" fill="#F3705A"></path>
                            </g>
                        </g>
                    </g>
                </g>
            </g>
        </g>
    </g>
</svg>